{"glyphs":{":":{"x_min":0,"x_max":275,"ha":275,"o":"m 138 60 l 172 25 l 138 -9 l 104 25 z m 138 353 l 172 318 l 138 283 l 104 318 z"},"$":{"x_min":0,"x_max":551,"ha":551,"o":"m 273 657 q 214 652 178 611 q 141 569 141 508 q 141 452 175 413 q 209 375 273 358 z m 299 317 l 299 15 q 353 28 385 71 q 417 114 417 172 q 417 226 386 264 q 356 301 299 317 z m 273 733 l 299 733 l 299 687 q 341 682 374 666 q 406 650 429 623 l 407 600 q 386 623 359 637 q 333 651 299 657 l 299 352 q 374 331 411 287 q 449 243 449 177 q 449 106 408 55 q 368 4 299 -11 l 299 -59 l 273 -59 l 273 -11 l 269 -11 q 215 -11 173 10 q 131 30 100 72 l 124 99 q 153 57 189 36 q 225 15 270 15 l 273 15 l 273 325 q 192 346 151 391 q 109 437 109 504 q 109 574 155 625 q 200 676 273 687 z"},"?":{"x_min":0,"x_max":447,"ha":447,"o":"m 205 60 l 239 25 l 205 -10 l 171 25 z m 221 243 l 221 156 l 188 147 l 188 240 q 188 295 198 320 q 208 345 232 368 q 243 378 265 397 q 345 465 345 532 q 345 598 301 645 q 256 692 193 692 q 142 692 102 660 q 62 627 40 568 l 10 576 q 34 645 82 685 q 131 724 192 724 q 270 724 326 667 q 382 611 382 531 q 382 484 362 449 q 342 415 285 371 q 243 337 232 312 q 221 287 221 243 z"},"<":{"x_min":0,"x_max":833,"ha":833,"o":"m 704 543 l 704 509 l 182 298 l 704 87 l 704 53 l 129 288 l 129 308 z"},"'":{"x_min":0,"x_max":134,"ha":134,"o":"m 50 700 l 84 700 l 84 430 l 50 430 z"},"=":{"x_min":0,"x_max":833,"ha":833,"o":"m 124 227 l 709 227 l 709 196 l 124 196 z m 124 400 l 709 400 l 709 369 l 124 369 z"},"a":{"x_min":0,"x_max":353,"ha":353,"o":"m 164 214 q 124 214 96 186 q 68 157 68 116 q 68 75 96 47 q 124 18 164 18 q 204 18 232 47 q 260 76 260 116 q 260 156 232 185 q 204 214 164 214 z m 294 275 l 294 4 l 264 -7 l 264 48 q 247 20 219 4 q 191 -12 159 -12 q 105 -12 70 24 q 35 61 35 116 q 35 171 72 208 q 109 245 164 245 q 198 245 222 232 q 247 219 262 192 l 262 272 q 262 309 246 323 q 229 338 189 338 q 179 338 167 337 q 155 336 139 335 l 148 366 q 160 367 171 367 q 182 367 199 367 q 254 367 274 348 q 294 329 294 275 z"},"L":{"x_min":0,"x_max":436,"ha":436,"o":"m 110 725 l 110 32 l 437 32 l 425 0 l 76 0 l 76 715 z"},"3":{"x_min":0,"x_max":551,"ha":551,"o":"m 321 326 q 377 310 407 268 q 437 226 437 163 q 437 88 383 38 q 329 -12 247 -12 q 193 -12 151 12 q 108 37 80 84 l 108 106 q 131 63 167 41 q 204 19 250 19 q 315 19 359 61 q 402 102 402 163 q 402 230 360 269 q 317 307 242 307 l 190 307 l 190 341 l 238 341 q 313 341 356 377 q 399 413 399 475 q 399 535 359 574 q 319 614 257 614 q 221 614 185 596 q 149 579 116 545 l 95 566 q 132 605 174 625 q 215 645 260 645 q 336 645 385 597 q 435 548 435 474 q 435 419 404 378 q 372 337 321 326 z"},";":{"x_min":0,"x_max":275,"ha":275,"o":"m 149 255 l 184 220 l 149 185 l 116 220 z m 169 109 l 73 -147 l 43 -147 l 126 109 z"},"J":{"x_min":0,"x_max":457,"ha":457,"o":"m 374 725 l 374 250 q 374 184 365 142 q 356 100 336 70 q 308 28 265 5 q 222 -18 171 -18 q 114 -18 73 5 q 33 27 5 76 l 31 101 q 57 58 92 36 q 127 14 172 14 q 255 14 297 73 q 339 131 339 246 l 339 715 z"},"V":{"x_min":0,"x_max":697,"ha":697,"o":"m 43 722 l 348 54 l 656 722 l 685 708 l 347 -19 l 11 708 z"},"\"":{"x_min":0,"x_max":259,"ha":259,"o":"m 175 700 l 209 700 l 209 430 l 175 430 z m 50 700 l 84 700 l 84 430 l 50 430 z"},"7":{"x_min":0,"x_max":551,"ha":551,"o":"m 53 637 l 445 637 l 198 -6 l 161 -6 l 399 604 l 53 604 z"},"S":{"x_min":0,"x_max":454,"ha":454,"o":"m 396 661 l 373 637 q 340 669 308 685 q 275 700 237 700 q 168 700 125 654 q 82 608 82 533 q 82 429 252 370 q 271 363 281 360 q 343 338 375 294 q 408 250 408 188 q 408 99 351 41 q 293 -18 206 -18 q 149 -18 104 9 q 58 36 31 86 l 60 109 q 88 60 124 37 q 159 14 206 14 q 278 14 324 63 q 371 112 371 188 q 371 292 204 350 q 183 357 171 361 q 109 382 77 425 q 45 468 45 529 q 45 617 102 674 q 158 731 245 731 q 290 731 328 713 q 367 695 396 661 z"},"}":{"x_min":0,"x_max":500,"ha":500,"o":"m 89 721 l 105 721 q 196 721 229 684 q 262 646 262 534 l 262 418 q 262 340 291 308 q 319 276 388 276 q 398 276 403 276 q 408 276 413 277 l 413 241 q 409 241 402 242 q 395 242 391 242 q 320 242 291 210 q 262 178 262 100 l 262 -16 q 262 -128 229 -165 q 196 -202 105 -202 l 89 -202 l 89 -168 l 108 -168 q 175 -168 199 -143 q 222 -117 222 -35 l 222 83 q 222 169 243 206 q 264 243 317 259 q 264 275 243 312 q 222 349 222 435 l 222 553 q 222 636 198 661 q 175 687 107 687 l 89 687 z"},"Z":{"x_min":0,"x_max":572,"ha":572,"o":"m 53 715 l 526 715 l 83 32 l 557 32 l 547 0 l 23 0 l 467 683 l 43 683 z"},"x":{"x_min":0,"x_max":350,"ha":350,"o":"m 299 366 l 323 347 l 195 185 l 328 14 l 303 -8 l 175 159 l 44 -7 l 21 12 l 156 182 l 26 346 l 52 367 l 175 209 z"},")":{"x_min":0,"x_max":373,"ha":373,"o":"m 54 734 q 166 673 229 557 q 292 442 292 300 q 292 158 229 42 q 166 -73 54 -134 l 43 -108 q 143 -56 200 54 q 258 163 258 300 q 258 437 200 546 q 143 656 43 708 z"},"&":{"x_min":0,"x_max":495,"ha":495,"o":"m 186 254 q 130 225 103 191 q 76 156 76 113 q 76 68 103 40 q 130 11 172 11 q 209 11 243 37 q 276 63 313 123 z m 216 270 l 330 152 q 356 193 385 241 q 415 290 452 352 l 476 336 q 450 292 420 242 q 390 192 353 131 l 465 15 l 443 -9 l 334 101 q 297 42 256 11 q 215 -19 171 -19 q 116 -19 79 19 q 42 57 42 113 q 42 161 73 200 q 103 239 168 274 q 127 316 111 349 q 95 381 95 417 q 95 468 133 505 q 170 542 224 542 q 273 542 307 508 q 341 473 341 422 q 341 378 311 342 q 281 305 216 270 z m 200 289 q 255 319 281 351 q 307 383 307 421 q 307 460 283 486 q 259 512 221 512 q 182 512 155 485 q 128 457 128 416 q 128 386 144 358 q 160 329 200 289 z"},"_":{"x_min":0,"x_max":500,"ha":500,"o":"m 0 -206 l 500 -206 l 500 -236 l 0 -236 z"},"v":{"x_min":0,"x_max":375,"ha":375,"o":"m 54 364 l 192 46 l 331 364 l 362 353 l 190 -27 l 22 351 z"},"O":{"x_min":0,"x_max":824,"ha":824,"o":"m 412 701 q 270 701 173 602 q 75 502 75 358 q 75 214 173 114 q 270 14 412 14 q 554 14 652 114 q 749 214 749 358 q 749 502 651 602 q 554 701 412 701 z m 412 734 q 480 734 543 711 q 606 688 654 645 q 718 588 752 514 q 786 440 786 358 q 786 276 752 202 q 718 127 654 70 q 606 27 543 4 q 480 -19 412 -19 q 344 -19 281 4 q 218 27 170 70 q 106 127 72 201 q 38 275 38 358 q 38 429 64 495 q 90 562 138 614 q 191 672 261 703 q 332 734 412 734 z"},"(":{"x_min":0,"x_max":373,"ha":373,"o":"m 319 734 l 330 708 q 230 656 173 546 q 115 437 115 300 q 115 163 173 54 q 230 -56 330 -108 l 319 -134 q 208 -73 144 42 q 81 158 81 300 q 81 442 144 557 q 208 673 319 734 z"},"C":{"x_min":0,"x_max":689,"ha":689,"o":"m 641 651 l 623 623 q 577 661 522 680 q 468 700 412 700 q 268 700 171 602 q 75 503 75 358 q 75 281 105 214 q 135 147 192 96 q 238 56 292 35 q 346 14 407 14 q 469 14 525 35 q 581 57 634 100 l 650 73 q 601 30 539 7 q 477 -16 412 -16 q 339 -16 279 5 q 218 27 170 70 q 106 126 72 201 q 38 275 38 358 q 38 428 64 494 q 90 561 138 614 q 192 673 260 702 q 328 731 412 731 q 476 731 533 711 q 590 691 641 651 z"},"W":{"x_min":0,"x_max":918,"ha":918,"o":"m 46 722 l 326 61 l 449 358 l 303 708 l 335 722 l 467 401 l 598 722 l 629 708 l 486 364 l 608 67 l 868 722 l 901 708 l 607 -17 l 465 322 l 325 -17 l 12 708 z"},"A":{"x_min":0,"x_max":718,"ha":718,"o":"m 358 666 l 219 368 l 495 368 z m 358 730 l 707 6 l 675 -6 l 512 336 l 204 336 l 44 -6 l 10 6 z"},"f":{"x_min":0,"x_max":200,"ha":200,"o":"m 191 718 l 191 684 q 144 677 122 645 q 99 614 99 556 l 99 359 l 191 359 l 191 328 l 99 328 l 99 0 l 66 -9 l 66 548 q 66 625 97 667 q 128 709 191 718 z"},"Q":{"x_min":0,"x_max":824,"ha":824,"o":"m 660 75 l 758 3 l 736 -22 l 632 52 q 583 17 528 -1 q 472 -19 412 -19 q 344 -19 281 4 q 219 27 170 70 q 107 126 73 201 q 38 276 38 358 q 38 429 64 495 q 90 562 138 614 q 191 672 261 703 q 332 734 412 734 q 480 734 543 711 q 606 688 654 645 q 718 588 752 514 q 786 440 786 358 q 786 278 755 208 q 723 137 660 75 z m 412 701 q 270 701 173 602 q 75 502 75 358 q 75 214 173 114 q 270 14 412 14 q 554 14 652 114 q 749 214 749 358 q 749 502 651 602 q 554 701 412 701 z"},"w":{"x_min":0,"x_max":669,"ha":669,"o":"m 20 353 l 50 366 l 188 54 l 338 375 l 484 53 l 635 365 l 662 353 l 482 -16 l 336 306 l 186 -16 z"},"-":{"x_min":0,"x_max":264,"ha":264,"o":"m 52 198 l 212 198 l 212 166 l 52 166 z"},"E":{"x_min":0,"x_max":454,"ha":454,"o":"m 76 715 l 395 715 l 406 684 l 110 684 l 110 386 l 369 386 l 369 355 l 110 355 l 110 32 l 420 32 l 409 0 l 76 0 z"},"s":{"x_min":0,"x_max":262,"ha":262,"o":"m 228 327 l 209 307 q 192 325 176 333 q 159 341 137 341 q 109 341 90 320 q 71 300 71 269 q 71 244 85 229 q 99 214 146 198 q 191 182 211 157 q 231 133 231 94 q 231 48 200 17 q 170 -13 124 -13 q 97 -13 73 -1 q 48 11 32 32 l 50 56 q 66 36 84 25 q 103 15 123 15 q 156 15 177 36 q 198 57 198 91 q 198 120 183 137 q 167 155 121 172 q 73 189 55 210 q 37 231 37 266 q 37 311 66 341 q 96 371 140 371 q 166 371 188 360 q 210 349 228 327 z"},">":{"x_min":0,"x_max":833,"ha":833,"o":"m 129 543 l 704 308 l 704 288 l 129 53 l 129 87 l 650 298 l 129 509 z"},"l":{"x_min":0,"x_max":160,"ha":160,"o":"m 96 725 l 96 0 l 64 -9 l 64 715 z"},"8":{"x_min":0,"x_max":551,"ha":551,"o":"m 275 342 q 335 342 377 382 q 420 422 420 478 q 420 533 377 573 q 335 613 275 613 q 215 613 173 573 q 131 534 131 478 q 131 422 173 382 q 215 342 275 342 z m 275 311 q 211 311 167 269 q 123 227 123 166 q 123 105 167 63 q 211 21 275 21 q 339 21 383 63 q 427 106 427 166 q 427 226 383 269 q 339 311 275 311 z m 212 326 q 161 341 129 384 q 97 426 97 479 q 97 548 149 597 q 201 646 275 646 q 349 646 401 597 q 453 547 453 479 q 453 428 423 387 q 393 345 342 326 q 394 311 427 265 q 461 220 461 165 q 461 92 407 40 q 354 -12 275 -12 q 197 -12 143 40 q 89 91 89 165 q 89 223 122 266 q 155 310 212 326 z"},"\\":{"x_min":0,"x_max":278,"ha":278,"o":"m -24 734 l 9 734 l 331 -93 l 298 -93 z"},"e":{"x_min":0,"x_max":374,"ha":374,"o":"m 373 295 l 77 116 q 99 69 136 44 q 173 19 222 19 q 251 19 280 28 q 308 38 336 57 l 336 22 q 309 4 281 -4 q 252 -13 222 -13 q 142 -13 87 42 q 32 97 32 179 q 32 261 87 317 q 142 372 222 372 q 267 372 301 354 q 336 337 373 295 z m 321 299 q 300 320 276 330 q 251 340 222 340 q 156 340 109 293 q 63 247 63 182 q 63 169 64 161 q 64 153 66 145 z"},"b":{"x_min":0,"x_max":455,"ha":455,"o":"m 234 340 q 168 340 123 293 q 77 247 77 180 q 77 113 123 66 q 168 19 234 19 q 300 19 345 66 q 390 113 390 180 q 390 247 345 293 q 299 340 234 340 z m 75 725 l 75 278 q 101 322 143 347 q 185 372 233 372 q 313 372 369 316 q 425 259 425 179 q 425 100 369 43 q 313 -13 233 -13 q 186 -13 145 8 q 104 28 78 66 q 59 93 51 126 q 43 159 43 223 l 43 252 l 43 715 z"},"%":{"x_min":0,"x_max":806,"ha":806,"o":"m 451 165 q 451 106 494 62 q 537 19 595 19 q 655 19 698 62 q 740 104 740 165 q 740 227 698 270 q 656 312 595 312 q 535 312 493 269 q 451 226 451 165 z m 418 166 q 418 239 470 291 q 522 343 596 343 q 671 343 722 292 q 774 240 774 166 q 774 92 722 40 q 669 -12 596 -12 q 523 -12 471 41 q 418 94 418 166 z m 66 471 q 66 412 109 368 q 151 325 210 325 q 270 325 312 368 q 355 410 355 471 q 355 533 313 575 q 271 617 210 617 q 150 617 108 574 q 66 531 66 471 z m 32 471 q 32 544 84 596 q 137 648 211 648 q 286 648 338 597 q 389 545 389 471 q 389 397 337 345 q 285 294 211 294 q 138 294 85 346 q 32 399 32 471 z m 619 648 l 653 648 l 187 -12 l 153 -12 z"},"m":{"x_min":0,"x_max":537,"ha":537,"o":"m 278 297 q 297 332 323 349 q 350 367 382 367 q 433 367 456 331 q 479 294 479 214 l 479 0 l 447 -9 l 447 215 q 447 282 430 309 q 414 336 375 336 q 331 336 308 302 q 285 267 285 200 l 285 0 l 253 -9 l 253 215 q 253 282 236 309 q 219 336 181 336 q 137 336 114 302 q 91 268 91 203 l 91 0 l 59 -9 l 59 350 l 91 359 l 91 303 q 106 333 132 350 q 158 367 189 367 q 221 367 244 349 q 268 331 278 297 z"},"#":{"x_min":0,"x_max":769,"ha":769,"o":"m 346 425 l 297 283 l 430 283 l 479 425 z m 400 709 l 447 709 l 359 461 l 493 461 l 581 709 l 627 709 l 540 461 l 699 461 l 688 425 l 526 425 l 476 283 l 650 283 l 639 247 l 464 247 l 377 1 l 330 1 l 418 247 l 283 247 l 195 1 l 149 1 l 236 247 l 70 247 l 81 283 l 248 283 l 300 425 l 118 425 l 129 461 l 312 461 z"},",":{"x_min":0,"x_max":275,"ha":275,"o":"m 180 109 l 85 -147 l 54 -147 l 137 109 z"},"n":{"x_min":0,"x_max":390,"ha":390,"o":"m 334 214 l 334 0 l 301 -9 l 301 215 q 301 276 277 306 q 253 336 205 336 q 157 336 124 298 q 91 260 91 203 l 91 0 l 59 -9 l 59 350 l 91 359 l 91 297 q 110 330 143 348 q 176 367 214 367 q 275 367 305 330 q 334 292 334 214 z"},"h":{"x_min":0,"x_max":390,"ha":390,"o":"m 91 725 l 91 297 q 110 330 143 348 q 176 367 214 367 q 275 367 305 330 q 334 292 334 214 l 334 0 l 301 -9 l 301 215 q 301 276 277 306 q 253 336 205 336 q 157 336 124 298 q 91 260 91 203 l 91 0 l 59 -9 l 59 715 z"},"z":{"x_min":0,"x_max":354,"ha":354,"o":"m 50 359 l 337 359 l 80 30 l 332 30 l 321 0 l 20 0 l 277 329 l 40 329 z"},"B":{"x_min":0,"x_max":481,"ha":481,"o":"m 110 349 l 110 32 l 179 32 q 287 32 336 69 q 385 106 385 187 q 385 269 329 309 q 273 349 160 349 z m 110 683 l 110 382 l 187 382 q 275 382 327 424 q 379 465 379 535 q 379 613 328 648 q 278 683 163 683 z m 76 715 l 194 715 q 303 715 359 668 q 416 622 416 533 q 416 470 377 425 q 337 379 271 366 q 342 353 382 306 q 422 259 422 189 q 422 96 363 48 q 303 0 188 0 l 76 0 z"},"K":{"x_min":0,"x_max":466,"ha":466,"o":"m 113 370 l 438 725 l 459 701 l 154 370 l 465 14 l 441 -9 z m 111 0 l 76 -9 l 76 715 l 111 725 z"},"R":{"x_min":0,"x_max":458,"ha":458,"o":"m 111 683 l 111 329 l 141 329 q 240 329 299 378 q 357 427 357 509 q 357 588 298 636 q 240 683 141 683 z m 76 715 l 130 715 q 253 715 323 659 q 392 604 392 506 q 392 418 331 363 q 270 309 165 304 l 417 9 l 393 -12 l 111 321 l 111 0 l 76 -9 z"},"T":{"x_min":0,"x_max":476,"ha":476,"o":"m 16 715 l 460 715 l 469 684 l 256 684 l 256 0 l 221 -9 l 221 684 l 7 684 z"},"P":{"x_min":0,"x_max":449,"ha":449,"o":"m 111 683 l 111 265 l 144 265 q 248 265 311 320 q 373 375 373 467 q 373 562 309 623 q 245 683 143 683 z m 76 715 l 132 715 q 253 715 332 646 q 410 578 410 472 q 410 364 336 298 q 262 232 141 232 l 111 232 l 111 0 l 76 -9 z"},"|":{"x_min":0,"x_max":500,"ha":500,"o":"m 232 764 l 268 764 l 268 -236 l 232 -236 z"},"t":{"x_min":0,"x_max":262,"ha":262,"o":"m 118 480 l 118 359 l 226 359 l 226 328 l 118 328 l 118 122 q 118 64 132 44 q 146 24 182 24 q 190 24 201 25 q 211 26 224 29 l 219 -2 q 206 -5 197 -7 q 188 -8 181 -8 q 128 -8 106 20 q 85 48 85 125 l 85 328 l 49 328 l 57 359 l 85 359 l 85 471 z"},"M":{"x_min":0,"x_max":873,"ha":873,"o":"m 147 725 l 437 69 l 734 725 l 831 0 l 799 -9 l 716 613 l 436 -5 l 164 613 l 80 -9 l 49 0 z"},"g":{"x_min":0,"x_max":373,"ha":373,"o":"m 184 334 q 138 334 106 304 q 74 273 74 231 q 74 188 106 159 q 138 129 184 129 q 230 129 262 159 q 294 189 294 231 q 294 273 262 304 q 230 334 184 334 z m 329 373 l 314 337 q 306 336 301 335 q 295 335 291 335 q 288 335 282 335 q 276 336 273 336 q 299 320 313 292 q 328 264 328 232 q 328 190 303 159 q 279 128 235 114 q 279 98 304 65 q 328 32 328 -12 q 328 -74 284 -112 q 241 -151 171 -151 q 133 -151 100 -135 q 67 -120 45 -92 l 59 -58 q 81 -91 110 -108 q 139 -124 177 -124 q 227 -124 260 -92 q 294 -59 294 -11 q 294 35 261 65 q 229 95 178 95 q 151 95 129 87 q 107 79 81 59 l 63 80 q 78 93 93 101 q 108 110 124 115 q 83 128 61 157 q 39 186 39 226 q 39 289 82 327 q 124 365 194 365 q 200 365 215 364 q 230 363 239 363 q 257 363 308 370 q 322 372 329 373 z"},"j":{"x_min":0,"x_max":160,"ha":160,"o":"m 96 363 l 96 -25 q 96 -97 79 -124 q 62 -152 17 -166 l 17 -132 q 43 -120 54 -99 q 64 -78 64 -9 l 64 354 z m 80 546 l 112 514 l 80 481 l 48 514 z"},"i":{"x_min":0,"x_max":160,"ha":160,"o":"m 96 363 l 96 0 l 64 -9 l 64 354 z m 80 546 l 112 514 l 80 481 l 48 514 z"},"y":{"x_min":0,"x_max":377,"ha":377,"o":"m 44 364 l 196 68 l 341 362 l 369 348 l 110 -169 l 81 -155 l 178 35 l 14 349 z"},"@":{"x_min":0,"x_max":1000,"ha":1000,"o":"m 583 155 q 560 112 522 88 q 485 63 442 63 q 367 63 327 103 q 288 144 288 221 q 288 332 354 409 q 420 486 513 486 q 561 486 593 464 q 624 443 639 400 l 669 466 l 701 466 l 634 199 q 626 168 624 157 q 622 146 622 140 q 622 118 638 106 q 654 94 683 94 q 717 94 752 110 q 787 126 814 155 q 854 197 876 256 q 898 316 898 380 q 898 512 799 594 q 700 676 540 676 q 459 676 389 653 q 319 629 263 584 q 186 522 146 437 q 106 351 106 248 q 106 88 215 -8 q 323 -105 504 -105 q 584 -105 664 -81 q 745 -56 812 -11 l 823 -28 q 753 -80 674 -106 q 595 -133 509 -133 q 416 -133 341 -111 q 265 -89 208 -45 q 134 11 98 86 q 62 161 62 256 q 62 334 86 404 q 110 474 158 532 q 228 617 326 661 q 424 705 544 705 q 621 705 691 684 q 762 662 812 624 q 874 576 906 514 q 938 452 938 379 q 938 298 908 230 q 877 163 821 118 q 787 92 749 78 q 711 64 673 64 q 627 64 604 81 q 581 99 581 133 q 581 136 581 141 q 582 145 583 155 z m 631 353 q 620 403 589 429 q 559 455 512 455 q 436 455 385 387 q 333 319 333 218 q 333 159 362 127 q 391 94 442 94 q 498 94 541 130 q 583 166 599 227 z"},".":{"x_min":0,"x_max":275,"ha":275,"o":"m 138 60 l 172 25 l 138 -10 l 104 25 z"},"p":{"x_min":0,"x_max":471,"ha":471,"o":"m 91 80 l 91 -155 l 59 -164 l 59 350 l 91 359 l 91 274 q 116 320 158 346 q 199 372 249 372 q 329 372 384 315 q 440 259 440 179 q 440 99 385 43 q 329 -13 249 -13 q 196 -13 154 12 q 112 37 91 80 z m 249 340 q 184 340 138 293 q 92 247 92 180 q 92 113 137 66 q 183 19 249 19 q 315 19 360 66 q 406 113 406 180 q 406 247 360 293 q 314 340 249 340 z"},"X":{"x_min":0,"x_max":589,"ha":589,"o":"m 70 725 l 300 401 l 531 725 l 559 706 l 318 370 l 575 9 l 544 -9 l 297 342 l 46 -9 l 18 9 l 277 373 l 41 706 z"},"*":{"x_min":0,"x_max":500,"ha":500,"o":"m 264 734 l 262 613 l 359 671 l 379 651 l 272 592 l 372 538 l 365 511 l 262 572 l 264 455 l 236 450 l 238 572 l 138 512 l 120 533 l 225 592 l 125 649 l 134 675 l 238 613 l 236 726 z"},"Y":{"x_min":0,"x_max":554,"ha":554,"o":"m 50 722 l 283 269 l 515 722 l 544 708 l 177 -9 l 147 2 l 265 232 l 20 709 z"},"c":{"x_min":0,"x_max":351,"ha":351,"o":"m 339 344 l 332 311 q 303 327 278 333 q 252 340 222 340 q 156 340 111 294 q 66 248 66 180 q 66 112 111 66 q 156 19 222 19 q 251 19 280 29 q 308 38 336 57 l 342 27 q 317 7 287 -3 q 256 -13 222 -13 q 142 -13 86 43 q 31 99 31 179 q 31 260 86 316 q 142 372 222 372 q 257 372 287 365 q 317 358 339 344 z"},"!":{"x_min":0,"x_max":289,"ha":289,"o":"m 145 60 l 179 25 l 145 -10 l 111 25 z m 161 720 l 161 175 l 129 166 l 129 710 z"},"/":{"x_min":0,"x_max":278,"ha":278,"o":"m 269 734 l 302 734 l -20 -93 l -53 -93 z"},"[":{"x_min":0,"x_max":373,"ha":373,"o":"m 126 715 l 290 715 l 290 683 l 161 683 l 161 -86 l 290 -86 l 290 -118 l 126 -118 z"},"6":{"x_min":0,"x_max":551,"ha":551,"o":"m 273 400 q 200 400 146 345 q 92 290 92 213 q 92 134 147 78 q 202 22 280 22 q 357 22 410 75 q 463 128 463 206 q 463 288 408 344 q 353 400 273 400 z m 391 648 l 417 628 q 326 573 258 511 q 191 450 140 375 q 173 403 208 417 q 243 431 282 431 q 371 431 434 367 q 497 303 497 212 q 497 118 434 53 q 371 -11 279 -11 q 185 -11 122 52 q 59 116 59 213 q 59 324 145 436 q 230 548 391 648 z"},"r":{"x_min":0,"x_max":208,"ha":208,"o":"m 190 369 l 190 328 l 177 328 q 137 328 114 295 q 91 261 91 203 l 91 1 l 59 -8 l 59 350 l 91 359 l 91 294 q 108 330 134 349 q 159 368 190 369 z"},"2":{"x_min":0,"x_max":551,"ha":551,"o":"m 139 32 l 466 32 l 453 0 l 52 0 q 263 170 347 272 q 430 374 430 454 q 430 523 387 568 q 343 612 276 612 q 208 612 164 566 q 119 521 119 451 q 119 389 160 348 q 200 308 273 298 l 252 269 q 175 281 130 331 q 84 380 84 452 q 84 534 139 589 q 195 645 275 645 q 357 645 411 591 q 465 537 465 454 q 465 377 404 293 q 343 209 139 32 z"},"{":{"x_min":0,"x_max":500,"ha":500,"o":"m 412 721 l 412 687 l 394 687 q 326 687 302 661 q 278 635 278 553 l 278 435 q 278 348 257 312 q 237 275 184 259 q 237 243 257 206 q 278 170 278 83 l 278 -35 q 278 -117 302 -143 q 326 -169 394 -169 l 412 -169 l 412 -202 l 396 -202 q 305 -202 271 -165 q 238 -128 238 -16 l 238 100 q 238 179 209 210 q 181 242 110 242 q 106 242 99 242 q 92 241 88 241 l 88 277 q 93 276 98 276 q 103 276 113 276 q 181 276 209 308 q 238 340 238 418 l 238 534 q 238 646 271 684 q 305 721 396 721 z"},"9":{"x_min":0,"x_max":551,"ha":551,"o":"m 165 -11 l 139 9 q 229 63 299 126 q 368 189 416 262 q 384 234 349 220 q 313 206 273 206 q 184 206 121 270 q 58 334 58 425 q 58 520 121 584 q 185 648 277 648 q 371 648 434 584 q 497 521 497 424 q 497 313 412 201 q 326 89 165 -11 z m 464 420 q 464 502 409 559 q 354 615 275 615 q 198 615 145 562 q 92 509 92 431 q 92 350 147 293 q 202 237 282 237 q 355 237 409 292 q 464 347 464 420 z"}," ":{"x_min":0,"x_max":275,"ha":275,"o":""},"I":{"x_min":0,"x_max":200,"ha":200,"o":"m 117 725 l 117 0 l 82 -9 l 82 715 z"},"H":{"x_min":0,"x_max":699,"ha":699,"o":"m 111 725 l 111 370 l 589 370 l 589 715 l 623 725 l 623 0 l 589 -9 l 589 338 l 111 338 l 111 0 l 76 -9 l 76 715 z"},"4":{"x_min":0,"x_max":551,"ha":551,"o":"m 116 203 l 347 203 l 347 552 z m 61 173 l 379 655 l 379 203 l 482 203 l 482 173 l 379 173 l 379 0 l 347 -9 l 347 173 z"},"~":{"x_min":0,"x_max":833,"ha":833,"o":"m 747 356 l 747 321 q 696 285 649 267 q 602 249 558 249 q 529 249 499 255 q 469 262 417 281 q 411 283 399 288 q 318 318 276 318 q 236 318 192 300 q 148 282 87 239 l 87 275 q 137 311 184 329 q 231 347 276 347 q 297 347 321 343 q 344 338 370 329 q 385 324 413 313 q 509 278 558 278 q 598 278 643 296 q 688 315 747 356 z"},"D":{"x_min":0,"x_max":554,"ha":554,"o":"m 110 683 l 110 33 l 144 33 q 287 33 379 126 q 472 218 472 361 q 472 502 381 593 q 290 683 145 683 z m 76 715 l 138 715 q 302 715 406 615 q 509 516 509 359 q 509 206 401 103 q 293 0 132 0 l 76 0 z"},"^":{"x_min":0,"x_max":1000,"ha":1000,"o":"m 475 711 l 523 711 l 791 441 l 738 441 l 500 677 l 261 441 l 208 441 z"},"0":{"x_min":0,"x_max":551,"ha":551,"o":"m 275 614 q 191 614 132 528 q 73 442 73 318 q 73 194 132 109 q 191 24 275 24 q 359 24 418 109 q 477 194 477 318 q 477 443 418 528 q 359 614 275 614 z m 275 649 q 373 649 442 553 q 511 458 511 319 q 511 180 442 84 q 373 -11 275 -11 q 178 -11 109 85 q 40 181 40 319 q 40 458 109 553 q 178 649 275 649 z"},"F":{"x_min":0,"x_max":400,"ha":400,"o":"m 76 715 l 358 715 l 369 684 l 111 684 l 111 371 l 328 371 l 328 341 l 111 341 l 111 0 l 76 -9 z"},"`":{"x_min":0,"x_max":500,"ha":500,"o":"m 151 586 l 204 586 l 306 426 l 275 426 z"},"k":{"x_min":0,"x_max":315,"ha":315,"o":"m 93 725 l 93 170 l 269 359 l 290 339 l 128 166 l 297 11 l 275 -11 l 93 157 l 93 0 l 60 -9 l 60 715 z"},"u":{"x_min":0,"x_max":390,"ha":390,"o":"m 89 363 l 89 140 q 89 79 112 49 q 136 19 184 19 q 232 19 265 57 q 298 95 298 151 l 298 354 l 331 363 l 331 5 l 298 -4 l 298 57 q 280 25 247 6 q 215 -12 176 -12 q 114 -12 85 24 q 56 61 56 140 l 56 354 z"},"]":{"x_min":0,"x_max":373,"ha":373,"o":"m 83 715 l 247 715 l 247 -118 l 83 -118 l 83 -86 l 212 -86 l 212 683 l 83 683 z"},"U":{"x_min":0,"x_max":652,"ha":652,"o":"m 103 725 l 103 276 q 103 141 155 77 q 208 12 316 12 q 375 12 422 36 q 469 60 499 104 q 521 138 531 181 q 541 224 541 304 l 541 715 l 575 725 l 575 0 l 541 -9 l 541 127 q 511 56 452 18 q 392 -19 309 -19 q 246 -19 196 4 q 147 27 114 71 q 90 104 79 146 q 69 188 69 280 l 69 715 z"},"o":{"x_min":0,"x_max":444,"ha":444,"o":"m 222 340 q 156 340 111 293 q 66 247 66 180 q 66 112 111 66 q 156 19 222 19 q 288 19 333 66 q 379 113 379 180 q 379 247 333 293 q 288 340 222 340 z m 222 372 q 302 372 358 316 q 414 259 414 179 q 414 100 358 43 q 302 -13 222 -13 q 142 -13 86 43 q 31 99 31 179 q 31 260 86 316 q 142 372 222 372 z"},"N":{"x_min":0,"x_max":752,"ha":752,"o":"m 76 725 l 640 79 l 640 715 l 675 725 l 675 -13 l 110 635 l 110 0 l 76 -9 z"},"+":{"x_min":0,"x_max":833,"ha":833,"o":"m 402 596 l 432 596 l 432 313 l 709 313 l 709 283 l 432 283 l 432 0 l 402 0 l 402 283 l 124 283 l 124 313 l 402 313 z"},"G":{"x_min":0,"x_max":742,"ha":742,"o":"m 641 651 l 626 622 q 575 660 521 680 q 466 700 412 700 q 268 700 171 602 q 75 503 75 358 q 75 281 105 214 q 135 147 192 96 q 238 56 292 35 q 346 14 407 14 q 471 14 529 37 q 587 59 626 99 l 626 338 l 448 338 l 448 370 l 661 370 l 661 81 q 607 34 543 9 q 479 -16 412 -16 q 339 -16 279 5 q 218 27 170 70 q 107 126 73 201 q 38 276 38 358 q 38 428 64 494 q 90 561 138 614 q 191 673 259 702 q 327 731 412 731 q 476 731 534 711 q 592 690 641 651 z"},"q":{"x_min":0,"x_max":471,"ha":471,"o":"m 378 180 q 378 248 333 294 q 288 340 222 340 q 157 340 111 293 q 65 247 65 180 q 65 113 111 66 q 156 19 222 19 q 288 19 333 66 q 378 112 378 180 z m 379 -155 l 379 80 q 358 37 316 12 q 274 -13 222 -13 q 142 -13 86 43 q 31 99 31 179 q 31 259 86 316 q 142 372 222 372 q 271 372 313 346 q 354 321 379 274 l 379 359 l 412 350 l 412 -164 z"},"d":{"x_min":0,"x_max":471,"ha":471,"o":"m 222 339 q 156 339 110 292 q 65 246 65 179 q 65 112 111 66 q 157 19 222 19 q 288 19 333 65 q 378 112 378 179 q 378 247 333 293 q 288 339 222 339 z m 412 725 l 412 5 l 379 -5 l 379 80 q 352 35 311 10 q 271 -14 222 -14 q 142 -14 86 42 q 31 99 31 179 q 31 259 86 315 q 142 372 222 372 q 274 372 316 347 q 358 321 379 277 l 379 715 z"},"1":{"x_min":0,"x_max":551,"ha":551,"o":"m 310 650 l 310 0 l 276 -9 l 276 584 q 255 569 227 552 q 199 535 148 507 l 133 537 q 187 564 229 592 q 272 619 310 650 z"},"5":{"x_min":0,"x_max":551,"ha":551,"o":"m 137 637 l 427 637 l 408 604 l 169 604 l 169 386 q 196 394 217 398 q 238 402 255 402 q 335 402 389 344 q 443 286 443 198 q 443 108 386 49 q 330 -11 247 -11 q 205 -11 165 7 q 125 26 94 60 l 119 85 q 144 54 177 37 q 209 21 248 21 q 319 21 365 70 q 410 119 410 196 q 410 271 365 320 q 319 369 248 369 q 223 369 196 362 q 169 354 137 339 z"}}}
